<svg width="128" height="128" viewBox="0 0 128 128" fill="none" xmlns="http://www.w3.org/2000/svg">
<rect width="128" height="128" rx="14" fill="white"/>
<path d="M126.509 98.5249C124.635 98.9116 123.127 98.8514 121.832 98.357C120.372 97.7995 119.108 96.6618 117.876 94.812L117.876 94.8115C113.743 88.619 109.294 82.6282 104.854 76.6481C103.184 74.3987 101.515 72.1508 99.8638 69.8942C99.8637 69.8941 99.8636 69.894 99.8635 69.8939L99.46 70.1891C98.8568 69.3617 98.2357 68.5462 97.518 67.6039C97.4062 67.4571 97.292 67.3071 97.1751 67.1536C97.204 67.1147 97.2328 67.0757 97.2617 67.0368L96.86 66.7391L96.4618 67.0415C96.4913 67.0803 96.5206 67.1189 96.5498 67.1573C94.3713 70.0926 92.1944 72.9864 90.031 75.8621C85.1871 82.301 80.4114 88.6492 75.84 95.1691M126.509 98.5249L75.4307 94.8819M126.509 98.5249C124.296 95.5754 122.1 92.6423 119.915 89.7233C113.854 81.6286 107.874 73.6419 101.842 65.7118L126.509 98.5249ZM75.84 95.1691L75.4307 94.8819M75.84 95.1691L75.4306 94.882C75.4306 94.882 75.4307 94.8819 75.4307 94.8819M75.84 95.1691C73.5355 98.453 71.1203 99.9575 66.9654 99.0007L67.293 98.5611C69.1047 98.9455 70.5187 98.8201 71.7204 98.2969C73.0887 97.7011 74.2538 96.559 75.4307 94.8819M4.71117 51.445L4.71148 51.4439C10.6251 30.3224 34.8289 21.6044 51.4208 34.642C61.0132 42.19 63.5224 52.793 63.1179 64.8991H7.8H7.31855L7.30036 65.3802C6.87576 76.6067 10.7049 85.6765 17.2907 91.0697C23.8836 96.4686 33.1618 98.1192 43.4891 94.6531L43.33 94.1791L43.4891 94.6531C50.8332 92.188 55.1356 86.4328 57.2786 79.324C57.7985 77.6187 58.4482 76.7747 59.2413 76.4127C59.9797 76.0757 60.9656 76.0965 62.3604 76.4729C60.6452 84.9392 56.8709 91.9373 49.1716 96.3452C37.3577 103.099 20.4837 100.896 11.6433 91.5456L11.6425 91.5447C6.42381 86.0513 4.18873 79.1995 3.1959 71.7251C3.08865 70.8682 2.89912 70.0071 2.71546 69.1728C2.64087 68.8339 2.56724 68.4994 2.50049 68.1714C2.52 66.1771 2.52984 64.1827 2.53 62.1884C2.75859 61.0388 2.96172 59.8928 3.16385 58.7525C3.60159 56.2829 4.0346 53.8401 4.71117 51.445ZM7.40038 60.6295L7.37998 61.1491H7.9H58.33H58.8404L58.8299 60.6388C58.4958 44.3803 48.3411 32.6816 34.3337 32.5791C26.7028 32.5181 20.124 35.3241 15.3733 40.2663C10.6253 45.2057 7.72947 52.2505 7.40038 60.6295Z" fill="black" stroke="black"/>
</svg>
