<svg width="128" height="77" viewBox="0 0 128 77" fill="none" xmlns="http://www.w3.org/2000/svg">
<rect width="128" height="77" rx="4" fill="white"/>
<path d="M127.37 73.8391C122.81 74.9991 119.99 73.8891 117.46 70.0891C111.78 61.5791 105.51 53.4591 99.46 45.1891C98.68 44.1191 97.87 43.0691 96.86 41.7391C89.7 51.3991 82.55 60.5991 75.84 70.1691C73.44 73.5891 70.92 75.0791 66.44 73.8691L93.36 37.7391L68.3 5.10908C72.61 4.26908 75.59 4.69908 78.23 8.55908C84.06 17.0791 90.49 25.1891 96.9 33.7691C103.35 25.2191 109.7 17.0991 115.7 8.65908C118.11 5.23908 120.7 3.93908 125.03 5.19908C121.75 9.54908 118.54 13.8291 115.31 18.0791C110.95 23.8091 106.67 29.6091 102.15 35.2191C100.54 37.2191 100.8 38.5191 102.24 40.4091C110.6 51.3991 118.86 62.4991 127.37 73.8391ZM2.03 37.1391C2.75 33.5291 3.23 29.8491 4.23 26.3091C10.23 4.87908 34.83 -4.03092 51.73 9.24908C61.63 17.0391 64.09 28.0191 63.6 40.3991H7.8C6.96 62.6091 22.95 76.0191 43.33 69.1791C50.48 66.7791 54.69 61.1791 56.8 54.1791C57.87 50.6691 59.64 50.1191 62.94 51.1191C61.25 59.8791 57.42 67.1991 49.42 71.7791C37.42 78.6391 20.29 76.4191 11.28 66.8891C5.96 61.2891 3.7 54.3191 2.7 46.7891C2.55 45.5891 2.24 44.4091 2 43.2191C2.02 41.1924 2.03 39.1658 2.03 37.1391ZM7.9 35.6491H58.33C58 19.5891 48 8.17908 34.33 8.07908C19.33 7.95908 8.55 19.0991 7.9 35.6491Z" fill="black"/>
</svg>
