<svg width="128" height="128" viewBox="0 0 128 128" fill="none" xmlns="http://www.w3.org/2000/svg">
<rect width="128" height="128" rx="14" fill="white"/>
<path d="M127.37 98.8391C122.81 99.9991 119.99 98.8891 117.46 95.0891C111.78 86.5791 105.51 78.4591 99.46 70.1891C98.68 69.1191 97.87 68.0691 96.86 66.7391C89.7 76.3991 82.55 85.5991 75.84 95.1691C73.44 98.5891 70.92 100.079 66.44 98.8691L93.36 62.7391L68.3 30.1091C72.61 29.2691 75.59 29.6991 78.23 33.5591C84.06 42.0791 90.49 50.1891 96.9 58.7691C103.35 50.2191 109.7 42.0991 115.7 33.6591C118.11 30.2391 120.7 28.9391 125.03 30.1991C121.75 34.5491 118.54 38.8291 115.31 43.0791C110.95 48.8091 106.67 54.6091 102.15 60.2191C100.54 62.2191 100.8 63.5191 102.24 65.4091C110.6 76.3991 118.86 87.4991 127.37 98.8391ZM2.03 62.1391C2.75 58.5291 3.23 54.8491 4.23 51.3091C10.23 29.8791 34.83 20.9691 51.73 34.2491C61.63 42.0391 64.09 53.0191 63.6 65.3991H7.8C6.96 87.6091 22.95 101.019 43.33 94.1791C50.48 91.7791 54.69 86.1791 56.8 79.1791C57.87 75.6691 59.64 75.1191 62.94 76.1191C61.25 84.8791 57.42 92.1991 49.42 96.7791C37.42 103.639 20.29 101.419 11.28 91.8891C5.96 86.2891 3.7 79.3191 2.7 71.7891C2.55 70.5891 2.24 69.4091 2 68.2191C2.02 66.1924 2.03 64.1658 2.03 62.1391ZM7.9 60.6491H58.33C58 44.5891 48 33.1791 34.33 33.0791C19.33 32.9591 8.55 44.0991 7.9 60.6491Z" fill="black"/>
</svg>
