<svg width="114" height="113" viewBox="0 0 114 113" fill="none" xmlns="http://www.w3.org/2000/svg">
<g clip-path="url(#clip0_523_17)">
<rect width="114" height="113" rx="56.5" fill="white"/>
<path fill-rule="evenodd" clip-rule="evenodd" d="M57.388 -7C24.041 -7 -3 20.035 -3 53.388C-3 80.07 14.303 102.705 38.297 110.691C41.314 111.251 42.422 109.381 42.422 107.786C42.422 106.346 42.366 101.589 42.34 96.543C25.54 100.196 21.995 89.418 21.995 89.418C19.248 82.438 15.29 80.582 15.29 80.582C9.81 76.834 15.703 76.912 15.703 76.912C21.766 77.337 24.96 83.135 24.96 83.135C30.346 92.365 39.087 89.697 42.533 88.155C43.075 84.252 44.64 81.587 46.367 80.079C32.954 78.554 18.853 73.375 18.853 50.236C18.853 43.643 21.213 38.256 25.076 34.026C24.448 32.506 22.381 26.364 25.66 18.046C25.66 18.046 30.73 16.423 42.27 24.236C47.088 22.897 52.255 22.224 57.388 22.201C62.518 22.224 67.688 22.895 72.515 24.234C84.041 16.421 89.105 18.044 89.105 18.044C92.392 26.361 90.325 32.504 89.698 34.024C93.57 38.254 95.913 43.641 95.913 50.234C95.913 73.428 81.786 78.534 68.339 80.03C70.506 81.904 72.436 85.58 72.436 91.213C72.436 99.293 72.366 105.796 72.366 107.785C72.366 109.392 73.454 111.275 76.514 110.682C100.494 102.688 117.777 80.06 117.777 53.388C117.776 20.037 90.738 -7 57.388 -7Z" fill="#181616"/>
<path d="M19.872 79.7029C19.739 80.0029 19.267 80.0929 18.837 79.8879C18.397 79.6919 18.152 79.2829 18.294 78.9819C18.424 78.6719 18.897 78.5869 19.334 78.7939C19.774 78.9909 20.024 79.4039 19.871 79.7039L19.872 79.7029ZM22.318 82.4319C22.031 82.6989 21.468 82.5749 21.086 82.1519C20.69 81.7319 20.616 81.1689 20.909 80.8979C21.207 80.6319 21.753 80.7579 22.149 81.1779C22.543 81.6039 22.621 82.1619 22.319 82.4329L22.318 82.4319ZM24.7 85.9089C24.33 86.1669 23.724 85.9259 23.35 85.3889C22.98 84.8509 22.98 84.2059 23.36 83.9489C23.733 83.6909 24.33 83.9239 24.71 84.4559C25.078 85.0009 25.078 85.6469 24.7 85.9089ZM27.961 89.2699C27.631 89.6349 26.925 89.5369 26.409 89.0399C25.882 88.5529 25.735 87.8599 26.066 87.4959C26.402 87.1299 27.111 87.2319 27.63 87.7259C28.157 88.2119 28.316 88.9059 27.963 89.2689L27.961 89.2699ZM32.461 91.2209C32.314 91.6939 31.636 91.9089 30.951 91.7069C30.268 91.4999 29.821 90.9469 29.961 90.4689C30.101 89.9919 30.784 89.7689 31.473 89.9839C32.156 90.1899 32.603 90.7399 32.461 91.2209ZM37.404 91.5819C37.421 92.0799 36.841 92.4919 36.124 92.5019C35.401 92.5189 34.816 92.1149 34.809 91.6249C34.809 91.1219 35.377 90.7149 36.099 90.7009C36.816 90.6879 37.405 91.0879 37.405 91.5809L37.404 91.5819ZM42.002 90.7999C42.088 91.2849 41.589 91.7839 40.876 91.9169C40.176 92.0469 39.526 91.7449 39.436 91.2639C39.35 90.7659 39.858 90.2669 40.558 90.1379C41.272 90.0149 41.912 90.3069 42.002 90.7999Z" fill="#181616"/>
</g>
<defs>
<clipPath id="clip0_523_17">
<rect width="114" height="113" rx="56.5" fill="white"/>
</clipPath>
</defs>
</svg>
