<svg width="93" height="94" viewBox="0 0 93 94" fill="none" xmlns="http://www.w3.org/2000/svg">
<g clip-path="url(#clip0_523_21)">
<rect width="93" height="94" rx="46.5" fill="white"/>
<path fill-rule="evenodd" clip-rule="evenodd" d="M47.7299 0.00766951C21.1859 -0.4661 -0.99306 21.0726 -0.999998 47.1914C-1.00793 74.0615 20.1492 95.4991 46.6515 95.4594C72.9071 95.4208 94.1594 74.0635 94.1594 47.7187C94.1584 21.8021 73.0033 0.458643 47.7299 0.00766951ZM46.5921 93.0638C21.4902 93.0698 1.30244 72.7165 1.30344 47.4045C1.30443 22.7447 21.8054 2.32696 46.5732 2.31804C71.7802 2.31011 91.8639 22.7893 91.8559 48.4928C91.848 72.7591 71.2331 93.0589 46.5921 93.0638ZM70.7712 34.242C69.786 32.6185 68.5748 31.0436 68.0178 29.2734C67.3834 27.2594 66.8571 24.9668 67.1931 22.9478C67.6385 20.2771 69.3344 18.6554 71.7466 17.917C72.5738 17.6638 72.9249 16.5718 72.2595 16.0189C53.3124 0.274712 25.219 6.11594 13.6186 23.9666C13.1884 24.6286 13.7 25.4741 14.4886 25.4349C18.1688 25.2517 21.725 25.0512 25.2833 25.0035C26.0673 24.9926 27.3647 25.6547 27.5491 26.2692C27.9614 27.6419 26.8077 28.1207 25.5807 28.2148C24.6729 28.286 23.7641 28.3547 22.7831 28.4289C22.1332 28.4781 21.7035 29.126 21.9109 29.7439L35.956 71.5868C36.0942 71.9986 36.7332 72.1013 36.8719 71.6897V71.6897C39.6094 63.5077 42.3628 55.3307 45.031 47.125C45.2748 46.3767 45.1539 45.3855 44.8863 44.6164C43.4749 40.5418 41.784 36.5554 40.5461 32.4312C39.6986 29.6074 38.5757 27.7807 35.2384 28.1078C34.912 28.1396 34.5448 27.7505 34.1707 27.2936C33.7567 26.788 33.859 25.941 34.3877 25.557C34.8069 25.2525 35.2269 24.9981 35.6508 24.9916C42.447 24.8875 49.2445 24.8895 56.0407 24.9975C56.4578 25.0044 56.8706 25.2565 57.2824 25.5614C57.8178 25.9578 57.8976 26.8322 57.4385 27.3148C57.091 27.6802 56.7301 28.001 56.3103 28.1276C55.4058 28.4005 54.4309 28.4412 53.3953 28.4916C52.7494 28.523 52.3277 29.1609 52.5337 29.7738L65.9501 69.6865C66.2607 70.6103 67.5751 70.5893 67.8568 69.6563C69.7625 63.3443 71.5612 57.4236 73.3155 51.491C75.1293 45.3637 74.0489 39.6398 70.7712 34.242ZM35.2989 85.9939C35.286 86.0314 35.2748 86.0694 35.265 86.1083C35.1397 86.6018 35.5032 87.096 35.9963 87.2228C43.7569 89.2174 51.3868 89.0667 59.1733 86.6301C59.7098 86.4622 59.9901 85.8779 59.7974 85.3498L48.2631 53.7568C47.94 52.872 46.6845 52.8841 46.378 53.7747C42.5932 64.7746 38.9431 75.3834 35.2989 85.9939ZM26.6614 83.3129C27.4449 83.7381 28.2989 82.9679 27.9936 82.1304L10.2417 33.4341C9.94272 32.6139 8.82811 32.5528 8.4876 33.3567C1.53078 49.7802 7.74002 73.043 26.6614 83.3129ZM83.8505 30.7275C83.465 30.0841 82.7194 30.3824 82.6822 31.1315C82.5577 33.6442 82.5563 36.3054 81.8592 38.7686C79.8541 45.8573 77.403 52.8241 75.043 59.8097C72.7692 66.5399 70.4143 73.2437 68.0813 79.9548C67.7754 80.8347 68.7224 81.5973 69.4971 81.08C80.3614 73.8249 86.3561 63.5301 87.365 50.2669C87.8904 43.3691 85.9322 34.2022 83.8505 30.7275Z" fill="#494949"/>
</g>
<defs>
<clipPath id="clip0_523_21">
<rect width="93" height="94" rx="46.5" fill="white"/>
</clipPath>
</defs>
</svg>
